<svg xmlns="http://www.w3.org/2000/svg" viewBox="0 0 461 461"><path fill="#0080ff" fill-opacity=".27" d="M244.5 83.3c-.3.7-.4 15.6-.3 33.2l.3 32 .5-33.3c.3-18.2.4-33.2.2-33.2-.1 0-.5.6-.7 1.3m-29.3 31.5c-.1 24.1-.5 32.1-1.4 31.6-.7-.5-.8-.3-.3.5 2.1 3.4 2.5-2.9 2.2-32.5l-.2-31.9zm0 257.9L215 422l-71.2.3-71.3.2 71.3.3c56.3.1 71.4-.1 71.7-1.1.3-.6.4-23 .3-49.7l-.3-48.5zm29.3 2.3v47.5h143l-71.2-.2-71.3-.3-.3-47.3-.2-47.2zm-91.2 75.7c42.2.2 111.2.2 153.5 0 42.2-.1 7.6-.2-76.8-.2s-119 .1-76.7.2"/><path fill="#0080ff" d="M218.9 13.5c-29.4 9.4-33.8 52.8-6.7 66.6L216 82v33.5c0 18.4-.3 33.5-.7 33.4-.5 0-3.9-4.1-7.8-9.1-10.3-13.3-24-25.9-40.7-37.4l-4.5-3.2-.5-7.9C159.7 54 108.9 43.9 93 77.7c-14.8 31.4 17.6 63.5 49.1 48.6l6.7-3.1 10.3 7.7c33 24.6 56.9 68.5 56.9 104.3 0 6.3-.4 6.1-7.5-3.3-27.9-37.5-73.5-63.6-122.7-70.4-4.4-.6-4.9-.9-7.7-5.9-13-23-48.2-21.1-59.4 3.2-3.4 7.4-3.1 20.8.6 28.3 11.6 23.7 46.3 25.1 59.2 2.5 2.4-4.2 33.8 4.3 55 14.9 12.3 6.1 29.5 17.5 29.5 19.6 0 .5-3.1.9-7 .9-7.7 0-14.5 1.2-23.8 4.2l-6.3 2-3.2-2.5c-17.8-13.5-43.3-7.8-51.8 11.6-13.6 31.4 21.6 60.8 49.7 41.4 5.6-3.9 10.9-11.1 12.5-17 2.2-8.3 2.2-8.3 11.1-10.7 28-7.6 55.3 7.7 64.7 36.4 6.3 18.8 6.4 20.6 6.8 78.8l.4 53.8H73l-3.8 3.4c-6.9 6.4-4.9 17.6 4 22.2 2.3 1.2 26.4 1.4 156.8 1.4 167 0 156.6.3 161.9-5.3 3.2-3.5 4-10.9 1.7-15.2-3.7-6.8.3-6.5-78.5-6.5H244v-47.8c0-50.1.5-57.6 4.6-75.2 8.5-36.7 39-56.3 70.3-45.3 6 2.1 6.2 2.3 8.5 10.5 2.2 7.6 10.3 16.6 17.8 19.8 27.4 11.8 55.1-14.7 44.6-42.7-7.7-20.7-35.2-27.9-52-13.7-2.2 1.8-3.7 2.3-5.2 1.9-10.5-3.5-20.1-5.4-27.3-5.4-10-.1-10.2-.6-1.5-6.8 21.7-15.6 41.2-23.9 67.7-28.8l9-1.7 1.5 2.3c14.7 22.6 48.1 20.4 59.3-3.9 3.4-7.4 3.1-20.8-.6-28.4-11.8-24-47.5-24.6-59.6-1-1.9 3.8-2.2 3.9-9.8 5.1-49.2 7.7-94.8 34.8-121.6 72.3-5.5 7.7-6.1 7.4-5.3-2.5 3.2-39 24.1-76.4 56-100.4 10.9-8.2 10.2-8.1 20.5-3.8 5.8 2.4 7.4 2.7 15 2.3 47.2-2.4 45.3-72.3-1.9-72.3-20.3 0-34.7 13.7-35.8 34l-.4 8-8 5.4c-14.3 9.7-35 29.9-42.1 41.2-1.1 1.6-2.3 2.9-2.8 2.9s-.9-14.1-.9-33.3V82.5l5.1-3c24.6-14.4 22.2-52.2-4-64.3-6.9-3.2-18.9-4-26.2-1.7"/></svg>